<?xml version="1.0" standalone="no"?>
<!DOCTYPE svg PUBLIC "-//W3C//DTD SVG 20010904//EN"
 "http://www.w3.org/TR/2001/REC-SVG-20010904/DTD/svg10.dtd">
<svg version="1.0" xmlns="http://www.w3.org/2000/svg"
 width="300.000000pt" height="300.000000pt" viewBox="0 0 300.000000 300.000000"
 preserveAspectRatio="xMidYMid meet">
<metadata>
Created by potrace 1.11, written by Peter Selinger 2001-2013
</metadata>
<g transform="translate(0.000000,300.000000) scale(0.100000,-0.100000)"
fill="#000000" stroke="none">
<path d="M999 2983 c0 -10 -1 -234 -2 -498 l-2 -480 -485 -1 c-267 -1 -491 -2
-497 -3 -10 -1 -13 -108 -13 -501 l0 -500 498 -2 497 -3 0 -498 0 -497 502 0
502 0 -1 498 0 497 501 3 501 2 -2 502 -3 502 -497 0 -498 0 -1 56 c0 30 -1
253 -2 495 l-2 440 -497 3 c-469 2 -498 1 -499 -15z"/>
</g>
</svg>
